<svg xmlns="http://www.w3.org/2000/svg" xmlns:xlink="http://www.w3.org/1999/xlink" viewBox="0 0 300 300" width="300" height="300" preserveAspectRatio="xMidYMid meet" style="width: 100%; height: 100%; transform: translate3d(0px, 0px, 0px); content-visibility: visible;"><defs><clipPath id="__lottie_element_26"><rect width="300" height="300" x="0" y="0"></rect></clipPath><g id="__lottie_element_30"><g style="display: block;" transform="matrix(1,0,0,1,84,56)" opacity="1"><g opacity="1" transform="matrix(1,0,0,1,70.53800201416016,90.5719985961914)"><path fill="rgb(217,43,68)" fill-opacity="1" d=" M-69.93000030517578,69.05500030517578 C-69.93000030517578,69.05500030517578 -58.67100143432617,43.78499984741211 -58.67100143432617,43.78499984741211 C-44.65999984741211,55.04399871826172 -22.39299964904785,63.04899978637695 -0.8759999871253967,63.04899978637695 C26.395999908447266,63.04899978637695 37.904998779296875,53.29199981689453 37.904998779296875,40.28200149536133 C37.904998779296875,2.502000093460083 -66.177001953125,27.27199935913086 -66.177001953125,-37.779998779296875 C-66.177001953125,-66.052001953125 -43.659000396728516,-90.0719985961914 4.379000186920166,-90.0719985961914 C25.395999908447266,-90.0719985961914 47.4119987487793,-84.56700134277344 62.67399978637695,-74.55899810791016 C62.67399978637695,-74.55899810791016 52.41699981689453,-49.290000915527344 52.41699981689453,-49.290000915527344 C36.65399932861328,-58.547000885009766 19.391000747680664,-63.04999923706055 4.129000186920166,-63.04999923706055 C-22.892000198364258,-63.04999923706055 -33.902000427246094,-52.54199981689453 -33.902000427246094,-39.28099822998047 C-33.902000427246094,-2.000999927520752 69.93000030517578,-26.270999908447266 69.93000030517578,38.03099822998047 C69.93000030517578,66.052001953125 47.1619987487793,90.0719985961914 -0.8759999871253967,90.0719985961914 C-28.148000717163086,90.0719985961914 -55.417999267578125,81.56500244140625 -69.93000030517578,69.05500030517578z"></path></g></g></g><clipPath id="__lottie_element_34"><path d="M0,0 L300,0 L300,300 L0,300z"></path></clipPath><mask id="__lottie_element_30_1" mask-type="alpha"><use xlink:href="#__lottie_element_30"></use></mask></defs><g clip-path="url(#__lottie_element_26)"><g mask="url(#__lottie_element_30_1)" style="display: block;"><g clip-path="url(#__lottie_element_34)" transform="matrix(1,0,0,1,0,0)" opacity="1"><g transform="matrix(1,0,0,1,150,150)" opacity="1" style="display: block;"><g opacity="1" transform="matrix(1,0,0,1,0,4.450921058654785)"><path fill="rgb(217,43,68)" fill-opacity="1" d=" M169,-163.5 C169,-163.5 169,163.5 169,163.5 C169,163.5 -169,163.5 -169,163.5 C-169,163.5 -169,-163.5 -169,-163.5 C-169,-163.5 169,-163.5 169,-163.5z"></path></g></g></g></g><g transform="matrix(1,0,0,1,84,56)" opacity="1" style="display: block;"><g opacity="1" transform="matrix(1,0,0,1,70.53800201416016,90.5719985961914)"><path stroke-linecap="butt" stroke-linejoin="miter" fill-opacity="0" stroke-miterlimit="4" stroke="rgb(217,43,68)" stroke-opacity="1" stroke-width="1" d=" M57.119998931884766,-60.87699890136719 C54.70500183105469,-54.926998138427734 52.41699981689453,-49.290000915527344 52.41699981689453,-49.290000915527344 C36.65399932861328,-58.547000885009766 19.391000747680664,-63.04999923706055 4.129000186920166,-63.04999923706055 C-22.892000198364258,-63.04999923706055 -33.902000427246094,-52.54199981689453 -33.902000427246094,-39.28099822998047 C-33.902000427246094,-2.000999927520752 69.93000030517578,-26.270999908447266 69.93000030517578,38.03099822998047 C69.93000030517578,66.052001953125 47.1619987487793,90.0719985961914 -0.8759999871253967,90.0719985961914 C-28.148000717163086,90.0719985961914 -55.417999267578125,81.56500244140625 -69.93000030517578,69.05500030517578 C-69.93000030517578,69.05500030517578 -69.93000030517578,69.05500030517578 -69.93000030517578,69.05500030517578 C-69.93000030517578,69.05500030517578 -58.67100143432617,43.78499984741211 -58.67100143432617,43.78499984741211 C-44.65999984741211,55.04399871826172 -22.39299964904785,63.04899978637695 -0.8759999871253967,63.04899978637695 C26.395999908447266,63.04899978637695 37.904998779296875,53.29199981689453 37.904998779296875,40.28200149536133 C37.904998779296875,2.502000093460083 -66.177001953125,27.27199935913086 -66.177001953125,-37.779998779296875 C-66.177001953125,-66.052001953125 -43.659000396728516,-90.0719985961914 4.379000186920166,-90.0719985961914 C25.395999908447266,-90.0719985961914 47.4119987487793,-84.56700134277344 62.67399978637695,-74.55899810791016 C62.67399978637695,-74.55899810791016 59.81800079345703,-67.52300262451172 57.119998931884766,-60.87699890136719"></path></g></g></g></svg></span>


<span class="h1 h"><svg xmlns="http://www.w3.org/2000/svg" xmlns:xlink="http://www.w3.org/1999/xlink" viewBox="0 0 300 300" width="300" height="300" preserveAspectRatio="xMidYMid meet" style="width: 100%; height: 100%; transform: translate3d(0px, 0px, 0px); content-visibility: visible;"><defs><clipPath id="__lottie_element_41"><rect width="300" height="300" x="0" y="0"></rect></clipPath><g id="__lottie_element_45"><g style="display: block;" transform="matrix(1,0,0,1,149.19700622558594,248.69400024414062)" opacity="1" fill="rgb(217,43,68)" font-size="280" font-family="Montserrat" font-style="normal" font-weight="normal" aria-label="H"><g stroke-linecap="butt" stroke-linejoin="round" stroke-miterlimit="4" transform="matrix(1,0,0,1,-113.4000015258789,0)" opacity="1" style="display: inherit;"><g><g transform="matrix(1,0,0,1,0,0)" opacity="1" style="display: block;"><path d=" M165.24,-197.39 C165.24,-197.39 165.24,-115.89 165.24,-115.89 C165.24,-115.89 63.17,-115.89 63.17,-115.89 C63.17,-115.89 63.17,-197.39 63.17,-197.39 C63.17,-197.39 26.51,-197.39 26.51,-197.39 C26.51,-197.39 26.51,0 26.51,0 C26.51,0 63.17,0 63.17,0 C63.17,0 63.17,-84.59 63.17,-84.59 C63.17,-84.59 165.24,-84.59 165.24,-84.59 C165.24,-84.59 165.24,0 165.24,0 C165.24,0 201.9,0 201.9,0 C201.9,0 201.9,-197.39 201.9,-197.39 C201.9,-197.39 165.24,-197.39 165.24,-197.39z"></path><g opacity="1" transform="matrix(2.799999952316284,0,0,2.799999952316284,0,0)"></g></g></g></g></g></g><clipPath id="__lottie_element_49"><path d="M0,0 L300,0 L300,300 L0,300z"></path></clipPath><mask id="__lottie_element_45_1" mask-type="alpha"><use xlink:href="#__lottie_element_45"></use></mask></defs><g clip-path="url(#__lottie_element_41)"><g mask="url(#__lottie_element_45_1)" style="display: block;"><g clip-path="url(#__lottie_element_49)" transform="matrix(1,0,0,1,11,0)" opacity="1"><g transform="matrix(1,0,0,1,240,-176)" opacity="1" style="display: block;"><g opacity="1" transform="matrix(3.109999895095825,0,0,1,-136,390)"><path fill="rgb(217,43,68)" fill-opacity="1" d=" M18,-232 C18,-232 18,232 18,232 C18,232 -18,232 -18,232 C-18,232 -18,-232 -18,-232 C-18,-232 18,-232 18,-232z"></path></g></g><g transform="matrix(1,0,0,1,310,-176)" opacity="1" style="display: block;"><g opacity="1" transform="matrix(3.109999895095825,0,0,1,-136,390)"><path fill="rgb(217,43,68)" fill-opacity="1" d=" M18,-232 C18,-232 18,232 18,232 C18,232 -18,232 -18,232 C-18,232 -18,-232 -18,-232 C-18,-232 18,-232 18,-232z"></path></g></g></g></g><g transform="matrix(1,0,0,1,149.19700622558594,248.69400024414062)" opacity="1" style="display: block;"><g opacity="1" transform="matrix(1,0,0,1,0,0)"><path stroke-linecap="butt" stroke-linejoin="miter" fill-opacity="0" stroke-miterlimit="4" stroke="rgb(216,43,68)" stroke-opacity="1" stroke-width="2" d=" M87.73100280761719,-197.38800048828125 C82.45800018310547,-197.38800048828125 51.84199905395508,-197.38800048828125 51.84199905395508,-197.38800048828125 C51.84199905395508,-197.38800048828125 51.84199905395508,-197.38800048828125 51.84199905395508,-197.38800048828125 C51.84199905395508,-197.38800048828125 51.84199905395508,-115.8949966430664 51.84199905395508,-115.8949966430664 C51.84199905395508,-115.8949966430664 -50.236000061035156,-115.8949966430664 -50.236000061035156,-115.8949966430664 C-50.236000061035156,-115.8949966430664 -50.236000061035156,-197.38800048828125 -50.236000061035156,-197.38800048828125 C-50.236000061035156,-197.38800048828125 -86.89299774169922,-197.38800048828125 -86.89299774169922,-197.38800048828125 C-86.89299774169922,-197.38800048828125 -86.89299774169922,0 -86.89299774169922,0 C-86.89299774169922,0 -50.236000061035156,0 -50.236000061035156,0 C-50.236000061035156,0 -50.236000061035156,-84.59500122070312 -50.236000061035156,-84.59500122070312 C-50.236000061035156,-84.59500122070312 51.84199905395508,-84.59500122070312 51.84199905395508,-84.59500122070312 C51.84199905395508,-84.59500122070312 51.84199905395508,0 51.84199905395508,0 C51.84199905395508,0 88.5,0 88.5,0 C88.5,0 88.5,-197.38800048828125 88.5,-197.38800048828125 C88.5,-197.38800048828125 88.22799682617188,-197.38800048828125 87.73100280761719,-197.38800048828125"></path></g></g></g></svg></span>


<span class="o"><svg xmlns="http://www.w3.org/2000/svg" xmlns:xlink="http://www.w3.org/1999/xlink" viewBox="0 0 300 300" width="300" height="300" preserveAspectRatio="xMidYMid meet" style="width: 100%; height: 100%; transform: translate3d(0px, 0px, 0px); content-visibility: visible;"><defs><clipPath id="__lottie_element_62"><rect width="300" height="300" x="0" y="0"></rect></clipPath><g id="__lottie_element_66"><g transform="matrix(1,0,0,1,149.19700622558594,248.69400024414062)" opacity="1" fill="rgb(217,43,68)" font-size="280" font-family="Montserrat" font-style="normal" font-weight="normal" aria-label="O" style="display: block;"><g stroke-linecap="butt" stroke-linejoin="round" stroke-miterlimit="4" transform="matrix(1,0,0,1,-117.87999725341797,0)" opacity="1" style="display: inherit;"><g><g transform="matrix(1,0,0,1,0,0)" opacity="1" style="display: block;"><path d=" M118.71,-29.33 C78.95,-29.33 49.35,-58.37 49.35,-98.69 C49.35,-139.02 78.95,-168.06 118.71,-168.06 C158.47,-168.06 188.08,-139.02 188.08,-98.69 C188.08,-58.37 158.47,-29.33 118.71,-29.33z M118.71,2.82 C179.91,2.82 225.02,-40.04 225.02,-98.69 C225.02,-157.35 179.91,-200.21 118.71,-200.21 C57.52,-200.21 12.41,-157.07 12.41,-98.69 C12.41,-40.32 57.52,2.82 118.71,2.82z"></path><g opacity="1" transform="matrix(2.799999952316284,0,0,2.799999952316284,0,0)"></g></g></g></g></g></g><clipPath id="__lottie_element_70"><path d="M0,0 L300,0 L300,300 L0,300z"></path></clipPath><mask id="__lottie_element_66_1" mask-type="alpha"><use xlink:href="#__lottie_element_66"></use></mask></defs><g clip-path="url(#__lottie_element_62)"><g mask="url(#__lottie_element_66_1)" style="display: block;"><g clip-path="url(#__lottie_element_70)" transform="matrix(1,0,0,1,11,0)" opacity="1"><g transform="matrix(1,0,0,1,240,-176)" opacity="1" style="display: block;"><g opacity="1" transform="matrix(4.699999809265137,0,0,1,-136,390)"><path fill="rgb(217,43,68)" fill-opacity="1" d=" M18,-232 C18,-232 18,232 18,232 C18,232 -18,232 -18,232 C-18,232 -18,-232 -18,-232 C-18,-232 18,-232 18,-232z"></path></g></g><g transform="matrix(1,0,0,1,310,-176)" opacity="1" style="display: block;"><g opacity="1" transform="matrix(5.889999866485596,0,0,1,-136,390)"><path fill="rgb(217,43,68)" fill-opacity="1" d=" M18,-232 C18,-232 18,232 18,232 C18,232 -18,232 -18,232 C-18,232 -18,-232 -18,-232 C-18,-232 18,-232 18,-232z"></path></g></g></g></g><g transform="matrix(1,0,0,1,149.19700622558594,248.69400024414062)" opacity="1" style="display: block;"><g opacity="1" transform="matrix(1,0,0,1,0,0)"><path stroke-linecap="butt" stroke-linejoin="miter" fill-opacity="0" stroke-miterlimit="4" stroke="rgb(216,43,68)" stroke-opacity="1" stroke-width="2" d=" M42.154998779296875,-155.45199584960938 C59.43000030517578,-143.23599243164062 70.2030029296875,-123.01699829101562 70.2030029296875,-98.69400024414062 C70.2030029296875,-58.37099838256836 40.595001220703125,-29.326000213623047 0.8349999785423279,-29.326000213623047 C0.8349999785423279,-29.326000213623047 0.8349999785423279,-29.326000213623047 0.8349999785423279,-29.326000213623047 C-38.92499923706055,-29.326000213623047 -68.53199768066406,-58.37099838256836 -68.53199768066406,-98.69400024414062 C-68.53199768066406,-139.01699829101562 -38.92499923706055,-168.06199645996094 0.8349999785423279,-168.06199645996094 C16.61199951171875,-168.06199645996094 30.790000915527344,-163.48899841308594 42.154998779296875,-155.45199584960938 M-61.40399932861328,-182.37399291992188 C-88.56099700927734,-164.45899963378906 -105.47200012207031,-134.42999267578125 -105.47200012207031,-98.69400024414062 C-105.47200012207031,-40.32400131225586 -60.35499954223633,2.819999933242798 0.8349999785423279,2.819999933242798 C0.8349999785423279,2.819999933242798 0.8349999785423279,2.819999933242798 0.8349999785423279,2.819999933242798 C62.025001525878906,2.819999933242798 107.14299774169922,-40.04199981689453 107.14299774169922,-98.69400024414062 C107.14299774169922,-157.3459930419922 62.025001525878906,-200.20799255371094 0.8349999785423279,-200.20799255371094 C-22.89299964904785,-200.20799255371094 -44.202999114990234,-193.7209930419922 -61.40399932861328,-182.37399291992188"></path></g></g></g></svg></span>


<span class="s2 s"><svg xmlns="http://www.w3.org/2000/svg" xmlns:xlink="http://www.w3.org/1999/xlink" viewBox="0 0 300 300" width="300" height="300" preserveAspectRatio="xMidYMid meet" style="width: 100%; height: 100%; transform: translate3d(0px, 0px, 0px); content-visibility: visible;"><defs><clipPath id="__lottie_element_84"><rect width="300" height="300" x="0" y="0"></rect></clipPath><g id="__lottie_element_88"><g style="display: block;" transform="matrix(1,0,0,1,84,56)" opacity="1"><g opacity="1" transform="matrix(1,0,0,1,70.53800201416016,90.5719985961914)"><path fill="rgb(217,43,68)" fill-opacity="1" d=" M-69.93000030517578,69.05500030517578 C-69.93000030517578,69.05500030517578 -58.67100143432617,43.78499984741211 -58.67100143432617,43.78499984741211 C-44.65999984741211,55.04399871826172 -22.39299964904785,63.04899978637695 -0.8759999871253967,63.04899978637695 C26.395999908447266,63.04899978637695 37.904998779296875,53.29199981689453 37.904998779296875,40.28200149536133 C37.904998779296875,2.502000093460083 -66.177001953125,27.27199935913086 -66.177001953125,-37.779998779296875 C-66.177001953125,-66.052001953125 -43.659000396728516,-90.0719985961914 4.379000186920166,-90.0719985961914 C25.395999908447266,-90.0719985961914 47.4119987487793,-84.56700134277344 62.67399978637695,-74.55899810791016 C62.67399978637695,-74.55899810791016 52.41699981689453,-49.290000915527344 52.41699981689453,-49.290000915527344 C36.65399932861328,-58.547000885009766 19.391000747680664,-63.04999923706055 4.129000186920166,-63.04999923706055 C-22.892000198364258,-63.04999923706055 -33.902000427246094,-52.54199981689453 -33.902000427246094,-39.28099822998047 C-33.902000427246094,-2.000999927520752 69.93000030517578,-26.270999908447266 69.93000030517578,38.03099822998047 C69.93000030517578,66.052001953125 47.1619987487793,90.0719985961914 -0.8759999871253967,90.0719985961914 C-28.148000717163086,90.0719985961914 -55.417999267578125,81.56500244140625 -69.93000030517578,69.05500030517578z"></path></g></g></g><clipPath id="__lottie_element_92"><path d="M0,0 L300,0 L300,300 L0,300z"></path></clipPath><mask id="__lottie_element_88_1" mask-type="alpha"><use xlink:href="#__lottie_element_88"></use></mask></defs><g clip-path="url(#__lottie_element_84)"><g mask="url(#__lottie_element_88_1)" style="display: block;"><g clip-path="url(#__lottie_element_92)" transform="matrix(1,0,0,1,0,0)" opacity="1"><g transform="matrix(1,0,0,1,150,150)" opacity="1" style="display: block;"><g opacity="1" transform="matrix(1,0,0,1,0,4.450921058654785)"><path fill="rgb(217,43,68)" fill-opacity="1" d=" M169,-163.5 C169,-163.5 169,163.5 169,163.5 C169,163.5 -169,163.5 -169,163.5 C-169,163.5 -169,-163.5 -169,-163.5 C-169,-163.5 169,-163.5 169,-163.5z"></path></g></g></g></g><g transform="matrix(1,0,0,1,84,56)" opacity="1" style="display: block;"><g opacity="1" transform="matrix(1,0,0,1,70.53800201416016,90.5719985961914)"><path stroke-linecap="butt" stroke-linejoin="miter" fill-opacity="0" stroke-miterlimit="4" stroke="rgb(217,43,68)" stroke-opacity="1" stroke-width="1" d=" M57.119998931884766,-60.87699890136719 C54.70500183105469,-54.926998138427734 52.41699981689453,-49.290000915527344 52.41699981689453,-49.290000915527344 C36.65399932861328,-58.547000885009766 19.391000747680664,-63.04999923706055 4.129000186920166,-63.04999923706055 C-22.892000198364258,-63.04999923706055 -33.902000427246094,-52.54199981689453 -33.902000427246094,-39.28099822998047 C-33.902000427246094,-2.000999927520752 69.93000030517578,-26.270999908447266 69.93000030517578,38.03099822998047 C69.93000030517578,66.052001953125 47.1619987487793,90.0719985961914 -0.8759999871253967,90.0719985961914 C-28.148000717163086,90.0719985961914 -55.417999267578125,81.56500244140625 -69.93000030517578,69.05500030517578 C-69.93000030517578,69.05500030517578 -69.93000030517578,69.05500030517578 -69.93000030517578,69.05500030517578 C-69.93000030517578,69.05500030517578 -58.67100143432617,43.78499984741211 -58.67100143432617,43.78499984741211 C-44.65999984741211,55.04399871826172 -22.39299964904785,63.04899978637695 -0.8759999871253967,63.04899978637695 C26.395999908447266,63.04899978637695 37.904998779296875,53.29199981689453 37.904998779296875,40.28200149536133 C37.904998779296875,2.502000093460083 -66.177001953125,27.27199935913086 -66.177001953125,-37.779998779296875 C-66.177001953125,-66.052001953125 -43.659000396728516,-90.0719985961914 4.379000186920166,-90.0719985961914 C25.395999908447266,-90.0719985961914 47.4119987487793,-84.56700134277344 62.67399978637695,-74.55899810791016 C62.67399978637695,-74.55899810791016 59.81800079345703,-67.52300262451172 57.119998931884766,-60.87699890136719"></path></g></g></g></svg></span><span class="h2 h"><svg xmlns="http://www.w3.org/2000/svg" xmlns:xlink="http://www.w3.org/1999/xlink" viewBox="0 0 300 300" width="300" height="300" preserveAspectRatio="xMidYMid meet" style="width: 100%; height: 100%; transform: translate3d(0px, 0px, 0px); content-visibility: visible;"><defs><clipPath id="__lottie_element_133"><rect width="300" height="300" x="0" y="0"></rect></clipPath><g id="__lottie_element_137"><g style="display: block;" transform="matrix(1,0,0,1,149.19700622558594,248.69400024414062)" opacity="1" fill="rgb(217,43,68)" font-size="280" font-family="Montserrat" font-style="normal" font-weight="normal" aria-label="H"><g stroke-linecap="butt" stroke-linejoin="round" stroke-miterlimit="4" transform="matrix(1,0,0,1,-113.4000015258789,0)" opacity="1" style="display: inherit;"><g><g transform="matrix(1,0,0,1,0,0)" opacity="1" style="display: block;"><path d=" M165.24,-197.39 C165.24,-197.39 165.24,-115.89 165.24,-115.89 C165.24,-115.89 63.17,-115.89 63.17,-115.89 C63.17,-115.89 63.17,-197.39 63.17,-197.39 C63.17,-197.39 26.51,-197.39 26.51,-197.39 C26.51,-197.39 26.51,0 26.51,0 C26.51,0 63.17,0 63.17,0 C63.17,0 63.17,-84.59 63.17,-84.59 C63.17,-84.59 165.24,-84.59 165.24,-84.59 C165.24,-84.59 165.24,0 165.24,0 C165.24,0 201.9,0 201.9,0 C201.9,0 201.9,-197.39 201.9,-197.39 C201.9,-197.39 165.24,-197.39 165.24,-197.39z"></path><g opacity="1" transform="matrix(2.799999952316284,0,0,2.799999952316284,0,0)"></g></g></g></g></g></g><clipPath id="__lottie_element_141"><path d="M0,0 L300,0 L300,300 L0,300z"></path></clipPath><mask id="__lottie_element_137_1" mask-type="alpha"><use xlink:href="#__lottie_element_137"></use></mask></defs><g clip-path="url(#__lottie_element_133)"><g mask="url(#__lottie_element_137_1)" style="display: block;"><g clip-path="url(#__lottie_element_141)" transform="matrix(1,0,0,1,11,0)" opacity="1"><g transform="matrix(1,0,0,1,240,-176)" opacity="1" style="display: block;"><g opacity="1" transform="matrix(3.109999895095825,0,0,1,-136,390)"><path fill="rgb(217,43,68)" fill-opacity="1" d=" M18,-232 C18,-232 18,232 18,232 C18,232 -18,232 -18,232 C-18,232 -18,-232 -18,-232 C-18,-232 18,-232 18,-232z"></path></g></g><g transform="matrix(1,0,0,1,310,-176)" opacity="1" style="display: block;"><g opacity="1" transform="matrix(3.109999895095825,0,0,1,-136,390)"><path fill="rgb(217,43,68)" fill-opacity="1" d=" M18,-232 C18,-232 18,232 18,232 C18,232 -18,232 -18,232 C-18,232 -18,-232 -18,-232 C-18,-232 18,-232 18,-232z"></path></g></g></g></g><g transform="matrix(1,0,0,1,149.19700622558594,248.69400024414062)" opacity="1" style="display: block;"><g opacity="1" transform="matrix(1,0,0,1,0,0)"><path stroke-linecap="butt" stroke-linejoin="miter" fill-opacity="0" stroke-miterlimit="4" stroke="rgb(216,43,68)" stroke-opacity="1" stroke-width="2" d=" M87.73100280761719,-197.38800048828125 C82.45800018310547,-197.38800048828125 51.84199905395508,-197.38800048828125 51.84199905395508,-197.38800048828125 C51.84199905395508,-197.38800048828125 51.84199905395508,-197.38800048828125 51.84199905395508,-197.38800048828125 C51.84199905395508,-197.38800048828125 51.84199905395508,-115.8949966430664 51.84199905395508,-115.8949966430664 C51.84199905395508,-115.8949966430664 -50.236000061035156,-115.8949966430664 -50.236000061035156,-115.8949966430664 C-50.236000061035156,-115.8949966430664 -50.236000061035156,-197.38800048828125 -50.236000061035156,-197.38800048828125 C-50.236000061035156,-197.38800048828125 -86.89299774169922,-197.38800048828125 -86.89299774169922,-197.38800048828125 C-86.89299774169922,-197.38800048828125 -86.89299774169922,0 -86.89299774169922,0 C-86.89299774169922,0 -50.236000061035156,0 -50.236000061035156,0 C-50.236000061035156,0 -50.236000061035156,-84.59500122070312 -50.236000061035156,-84.59500122070312 C-50.236000061035156,-84.59500122070312 51.84199905395508,-84.59500122070312 51.84199905395508,-84.59500122070312 C51.84199905395508,-84.59500122070312 51.84199905395508,0 51.84199905395508,0 C51.84199905395508,0 88.5,0 88.5,0 C88.5,0 88.5,-197.38800048828125 88.5,-197.38800048828125 C88.5,-197.38800048828125 88.22799682617188,-197.38800048828125 87.73100280761719,-197.38800048828125"></path></g></g></g></svg></span><span class="i">


<svg xmlns="http://www.w3.org/2000/svg" xmlns:xlink="http://www.w3.org/1999/xlink" viewBox="0 0 300 300" width="300" height="300" preserveAspectRatio="xMidYMid meet" style="width: 100%; height: 100%; transform: translate3d(0px, 0px, 0px); content-visibility: visible;"><defs><clipPath id="__lottie_element_154"><rect width="300" height="300" x="0" y="0"></rect></clipPath><g id="__lottie_element_158"><g style="display: block;" transform="matrix(1,0,0,1,149.19700622558594,248.69400024414062)" opacity="1" fill="rgb(217,43,68)" font-size="280" font-family="Montserrat" font-style="normal" font-weight="normal" aria-label="I"><g stroke-linecap="butt" stroke-linejoin="round" stroke-miterlimit="4" transform="matrix(1,0,0,1,-44.65999984741211,0)" opacity="1" style="display: inherit;"><g><g transform="matrix(1,0,0,1,0,0)" opacity="1" style="display: block;"><path d=" M26.51,0 C26.51,0 63.17,0 63.17,0 C63.17,0 63.17,-197.39 63.17,-197.39 C63.17,-197.39 26.51,-197.39 26.51,-197.39 C26.51,-197.39 26.51,0 26.51,0z"></path><g opacity="1" transform="matrix(2.799999952316284,0,0,2.799999952316284,0,0)"></g></g></g></g></g></g><clipPath id="__lottie_element_162"><path d="M0,0 L300,0 L300,300 L0,300z"></path></clipPath><mask id="__lottie_element_158_1" mask-type="alpha"><use xlink:href="#__lottie_element_158"></use></mask></defs><g clip-path="url(#__lottie_element_154)"><g mask="url(#__lottie_element_158_1)" style="display: block;"><g clip-path="url(#__lottie_element_162)" transform="matrix(1,0,0,1,-62,0)" opacity="1"><g transform="matrix(1,0,0,1,240,-176)" opacity="1" style="display: block;"><g opacity="1" transform="matrix(3.109999179840088,0,0,1,-136,390)"><path fill="rgb(217,43,68)" fill-opacity="1" d=" M18,-232 C18,-232 18,232 18,232 C18,232 -18,232 -18,232 C-18,232 -18,-232 -18,-232 C-18,-232 18,-232 18,-232z"></path></g></g><g transform="matrix(1,0,0,1,310,-176)" opacity="1" style="display: block;"><g opacity="1" transform="matrix(3.109999895095825,0,0,1,-136,390)"><path fill="rgb(217,43,68)" fill-opacity="1" d=" M18,-232 C18,-232 18,232 18,232 C18,232 -18,232 -18,232 C-18,232 -18,-232 -18,-232 C-18,-232 18,-232 18,-232z"></path></g></g></g></g><g transform="matrix(1,0,0,1,149.19700622558594,248.69400024414062)" opacity="1" style="display: block;"><g opacity="1" transform="matrix(1,0,0,1,0,0)"><path stroke-linecap="butt" stroke-linejoin="miter" fill-opacity="0" stroke-miterlimit="4" stroke="rgb(216,43,68)" stroke-opacity="1" stroke-width="2" d=" M18.506000518798828,-197.38800048828125 C18.506000518798828,-197.38800048828125 18.506000518798828,-197.38800048828125 18.506000518798828,-197.38800048828125 C18.506000518798828,-197.38800048828125 -18.150999069213867,-197.38800048828125 -18.150999069213867,-197.38800048828125 C-18.150999069213867,-197.38800048828125 -18.150999069213867,0 -18.150999069213867,0 C-18.150999069213867,0 -18.150999069213867,0 -18.150999069213867,0 C-18.150999069213867,0 18.506000518798828,0 18.506000518798828,0 C18.506000518798828,0 18.506000518798828,-197.38800048828125 18.506000518798828,-197.38800048828125"></path></g></g></g></svg></span>

<span class="n"><svg xmlns="http://www.w3.org/2000/svg" xmlns:xlink="http://www.w3.org/1999/xlink" viewBox="0 0 300 300" width="300" height="300" preserveAspectRatio="xMidYMid meet" style="width: 100%; height: 100%; transform: translate3d(0px, 0px, 0px); content-visibility: visible;"><defs><clipPath id="__lottie_element_175"><rect width="300" height="300" x="0" y="0"></rect></clipPath><g id="__lottie_element_179"><g transform="matrix(1,0,0,1,149.19700622558594,248.69400024414062)" opacity="1" fill="rgb(217,43,68)" font-size="280" font-family="Montserrat" font-style="normal" font-weight="normal" aria-label="N" style="display: block;"><g stroke-linecap="butt" stroke-linejoin="round" stroke-miterlimit="4" transform="matrix(1,0,0,1,-113.4000015258789,0)" opacity="1" style="display: inherit;"><g><g transform="matrix(1,0,0,1,0,0)" opacity="1" style="display: block;"><path d=" M165.52,-197.39 C165.52,-197.39 165.52,-63.73 165.52,-63.73 C165.52,-63.73 56.68,-197.39 56.68,-197.39 C56.68,-197.39 26.51,-197.39 26.51,-197.39 C26.51,-197.39 26.51,0 26.51,0 C26.51,0 62.88,0 62.88,0 C62.88,0 62.88,-133.66 62.88,-133.66 C62.88,-133.66 171.73,0 171.73,0 C171.73,0 201.9,0 201.9,0 C201.9,0 201.9,-197.39 201.9,-197.39 C201.9,-197.39 165.52,-197.39 165.52,-197.39z"></path><g opacity="1" transform="matrix(2.799999952316284,0,0,2.799999952316284,0,0)"></g></g></g></g></g></g><clipPath id="__lottie_element_183"><path d="M0,0 L300,0 L300,300 L0,300z"></path></clipPath><mask id="__lottie_element_179_1" mask-type="alpha"><use xlink:href="#__lottie_element_179"></use></mask></defs><g clip-path="url(#__lottie_element_175)"><g mask="url(#__lottie_element_179_1)" style="display: block;"><g clip-path="url(#__lottie_element_183)" transform="matrix(1,0,0,1,11,0)" opacity="1"><g transform="matrix(1,0,0,1,240,-176)" opacity="1" style="display: block;"><g opacity="1" transform="matrix(4.699999809265137,0,0,1,-136,390)"><path fill="rgb(217,43,68)" fill-opacity="1" d=" M18,-232 C18,-232 18,232 18,232 C18,232 -18,232 -18,232 C-18,232 -18,-232 -18,-232 C-18,-232 18,-232 18,-232z"></path></g></g><g transform="matrix(1,0,0,1,310,-176)" opacity="1" style="display: block;"><g opacity="1" transform="matrix(5.889999866485596,0,0,1,-136,390)"><path fill="rgb(217,43,68)" fill-opacity="1" d=" M18,-232 C18,-232 18,232 18,232 C18,232 -18,232 -18,232 C-18,232 -18,-232 -18,-232 C-18,-232 18,-232 18,-232z"></path></g></g></g></g><g transform="matrix(1,0,0,1,149.19700622558594,248.69400024414062)" opacity="1" style="display: block;"><g opacity="1" transform="matrix(1,0,0,1,0,0)"><path stroke-linecap="butt" stroke-linejoin="miter" fill-opacity="0" stroke-miterlimit="4" stroke="rgb(216,43,68)" stroke-opacity="1" stroke-width="2" d=" M87.00700378417969,-197.38800048828125 C80.16200256347656,-197.38800048828125 52.124000549316406,-197.38800048828125 52.124000549316406,-197.38800048828125 C52.124000549316406,-197.38800048828125 52.124000549316406,-197.38800048828125 52.124000549316406,-197.38800048828125 C52.124000549316406,-197.38800048828125 52.124000549316406,-63.72800064086914 52.124000549316406,-63.72800064086914 C52.124000549316406,-63.72800064086914 -56.72100067138672,-197.38800048828125 -56.72100067138672,-197.38800048828125 C-56.72100067138672,-197.38800048828125 -86.89299774169922,-197.38800048828125 -86.89299774169922,-197.38800048828125 C-86.89299774169922,-197.38800048828125 -86.89299774169922,0 -86.89299774169922,0 C-86.89299774169922,0 -50.518001556396484,0 -50.518001556396484,0 C-50.518001556396484,0 -50.518001556396484,-133.66000366210938 -50.518001556396484,-133.66000366210938 C-50.518001556396484,-133.66000366210938 58.327999114990234,0 58.327999114990234,0 C58.327999114990234,0 88.5,0 88.5,0 C88.5,0 88.5,-197.38800048828125 88.5,-197.38800048828125 C88.5,-197.38800048828125 87.95800018310547,-197.38800048828125 87.00700378417969,-197.38800048828125"></path></g></g></g></svg>